<svg width="91" height="90" viewBox="0 0 91 90" fill="none" xmlns="http://www.w3.org/2000/svg">
<path d="M90.0741 43.7684C89.7217 29.5604 82.1255 15.6468 70.2716 7.67274C62.7444 2.61223 53.6624 0.0220369 44.6094 0.000239511C40.0212 -0.0142917 35.422 0.63235 31.0263 1.95106C28.4325 2.72485 20.5093 5.61657 23.3284 9.77614C24.0768 10.8769 25.5989 11.2111 26.9176 10.9895C28.2327 10.7679 29.4206 10.0958 30.6449 9.55454C36.9696 6.75 44.3333 7.37485 50.9705 9.30751C60.067 11.9558 68.7531 17.2997 73.4576 25.4917C77.4646 32.4776 78.2093 41.2181 75.452 48.778C74.7436 50.7179 73.7773 52.6324 72.2079 53.9911C68.1936 57.475 61.9089 56.0981 57.2335 53.5624C50.9124 50.1294 45.5758 44.9236 42.0011 38.7042C39.5852 34.5011 37.9432 29.8038 34.7936 26.1165C31.6476 22.4256 26.2892 19.9335 21.8789 21.9715C18.3042 23.6317 16.5096 27.6714 15.7249 31.5149C14.2827 38.6279 15.3217 46.2169 18.6348 52.6906C22.4929 60.2214 29.0901 65.9249 35.4765 71.4976C36.6645 72.5402 37.9795 73.9461 37.5545 75.4719C37.2239 76.6635 35.9524 77.3247 34.7645 77.6879C28.7994 79.5116 22.086 77.2556 17.4905 73.0597C12.8913 68.8566 8.60099 61.7363 6.93716 55.7566C3.8856 44.7965 5.70927 34.007 10.2975 23.5917C10.7117 22.6617 11.1585 21.6954 11.0386 20.6927C10.9187 19.6865 9.96329 18.7056 8.98243 18.9817C8.5138 19.1125 8.16142 19.4866 7.8381 19.8572C5.09532 23.0432 3.23532 26.9121 1.96384 30.9155C-3.49264 48.1459 2.71946 68.417 16.8983 79.6824C31.0881 90.955 52.3255 92.4807 67.9902 83.3588C71.1835 81.4988 74.4058 78.8214 74.7945 75.1595C74.9216 73.9825 74.6964 72.711 73.8826 71.85C72.8146 70.7093 71.0636 70.5894 69.5015 70.6076C61.0624 70.673 52.3836 72.4276 44.3188 69.95C34.5792 66.9675 27.2373 57.4677 26.8413 47.3322C26.7759 45.5412 27.0048 43.5177 28.3962 42.377C30.6522 40.5352 33.9943 42.2535 36.3193 44.0227C46.7564 51.9749 56.9356 61.3294 69.7776 64.1266C73.8136 65.0022 78.242 65.1438 81.8893 63.2039C87.4185 60.265 89.6381 53.4643 90.0051 47.2377C90.0741 46.0825 90.0959 44.9381 90.0668 43.7865L90.0741 43.7684Z" fill="url(#paint0_linear_68_37)"/>
<defs>
<linearGradient id="paint0_linear_68_37" x1="43.7085" y1="0.000239511" x2="43.7085" y2="92.0702" gradientUnits="userSpaceOnUse">
<stop stop-color="#12345E"/>
<stop offset="0.5" stop-color="#1F68A0"/>
<stop offset="1" stop-color="#49ACCD"/>
</linearGradient>
</defs>
</svg>
