<?xml version="1.0" encoding="UTF-8"?>
<svg xmlns="http://www.w3.org/2000/svg" width="116" height="116" viewBox="18.25 24.4 102.6 102.6" role="img" aria-label="Wearless Shape 01 Cobalt Wave Refined symbol">
  <title>Wearless Shape 01 Cobalt Wave Refined symbol</title>
  <desc>Cobalt Wave symbol optical stroke 2.0.</desc>
  <defs>
    <linearGradient id="cobalt-w01-symbol" gradientUnits="userSpaceOnUse" x1="70" y1="26" x2="70" y2="125">
      <stop offset="0%" stop-color="#12345E"/>
      <stop offset="50%" stop-color="#1F68A0"/>
      <stop offset="100%" stop-color="#49ACCD"/>
    </linearGradient>
  </defs>
  <path d="M 119.855469 73.0625 C 119.476562 57.785156 111.308594 42.824219 98.5625 34.25 C 90.46875 28.808594 80.703125 26.023438 70.96875 26 C 66.035156 25.984375 61.089844 26.679688 56.363281 28.097656 C 53.574219 28.929688 45.054688 32.039062 48.085938 36.511719 C 48.890625 37.695312 50.527344 38.054688 51.945312 37.816406 C 53.359375 37.578125 54.636719 36.855469 55.953125 36.273438 C 62.753906 33.257812 70.671875 33.929688 77.808594 36.007812 C 87.589844 38.855469 96.929688 44.601562 101.988281 53.410156 C 106.296875 60.921875 107.097656 70.320312 104.132812 78.449219 C 103.371094 80.535156 102.332031 82.59375 100.644531 84.054688 C 96.328125 87.800781 89.570312 86.320312 84.542969 83.59375 C 77.746094 79.902344 72.007812 74.304688 68.164062 67.617188 C 65.566406 63.097656 63.800781 58.046875 60.414062 54.082031 C 57.03125 50.113281 51.269531 47.433594 46.527344 49.625 C 42.683594 51.410156 40.753906 55.753906 39.910156 59.886719 C 38.359375 67.535156 39.476562 75.695312 43.039062 82.65625 C 47.1875 90.753906 54.28125 96.886719 61.148438 102.878906 C 62.425781 104 63.839844 105.511719 63.382812 107.152344 C 63.027344 108.433594 61.660156 109.144531 60.382812 109.535156 C 53.96875 111.496094 46.75 109.070312 41.808594 104.558594 C 36.863281 100.039062 32.25 92.382812 30.460938 85.953125 C 27.179688 74.167969 29.140625 62.566406 34.074219 51.367188 C 34.519531 50.367188 35 49.328125 34.871094 48.25 C 34.742188 47.167969 33.714844 46.113281 32.660156 46.410156 C 32.15625 46.550781 31.777344 46.953125 31.429688 47.351562 C 28.480469 50.777344 26.480469 54.9375 25.113281 59.242188 C 19.246094 77.769531 25.925781 99.566406 41.171875 111.679688 C 56.429688 123.800781 79.265625 125.441406 96.109375 115.632812 C 99.542969 113.632812 103.007812 110.753906 103.425781 106.816406 C 103.5625 105.550781 103.320312 104.183594 102.445312 103.257812 C 101.296875 102.03125 99.414062 101.902344 97.734375 101.921875 C 88.660156 101.992188 79.328125 103.878906 70.65625 101.214844 C 60.183594 98.007812 52.289062 87.792969 51.863281 76.894531 C 51.792969 74.96875 52.039062 72.792969 53.535156 71.566406 C 55.960938 69.585938 59.554688 71.433594 62.054688 73.335938 C 73.277344 81.886719 84.222656 91.945312 98.03125 94.953125 C 102.371094 95.894531 107.132812 96.046875 111.054688 93.960938 C 117 90.800781 119.386719 83.488281 119.78125 76.792969 C 119.855469 75.550781 119.878906 74.320312 119.847656 73.082031 Z M 119.855469 73.0625 " fill="url(#cobalt-w01-symbol)" fill-rule="nonzero" stroke="url(#cobalt-w01-symbol)" stroke-width="2" stroke-linejoin="round" stroke-linecap="round" paint-order="stroke fill"/>
</svg>
